<svg width="16" height="16" viewBox="0 0 16 16" fill="none" xmlns="http://www.w3.org/2000/svg">
    <path
        d="M4.53815 5.19125C4.50025 5.09989 4.4903 4.99936 4.50954 4.90235C4.52879 4.80533 4.57637 4.71621 4.64628 4.64625L7.64628 1.64625C7.69271 1.59976 7.74786 1.56288 7.80856 1.53772C7.86926 1.51255 7.93432 1.4996 8.00003 1.4996C8.06574 1.4996 8.1308 1.51255 8.1915 1.53772C8.2522 1.56288 8.30734 1.59976 8.35378 1.64625L11.3538 4.64625C11.4238 4.71617 11.4715 4.8053 11.4908 4.90234C11.5101 4.99939 11.5002 5.09998 11.4623 5.19139C11.4245 5.2828 11.3603 5.36092 11.278 5.41586C11.1957 5.47079 11.099 5.50007 11 5.5H5.00003C4.90114 5.49998 4.80447 5.47063 4.72226 5.41568C4.64005 5.36072 4.57598 5.28262 4.53815 5.19125ZM11 10.5H5.00003C4.90108 10.4999 4.80433 10.5292 4.72204 10.5841C4.63974 10.6391 4.57559 10.7172 4.53772 10.8086C4.49984 10.9 4.48994 11.0006 4.50926 11.0976C4.52859 11.1947 4.57627 11.2838 4.64628 11.3537L7.64628 14.3537C7.69271 14.4002 7.74786 14.4371 7.80856 14.4623C7.86926 14.4874 7.93432 14.5004 8.00003 14.5004C8.06574 14.5004 8.1308 14.4874 8.1915 14.4623C8.2522 14.4371 8.30734 14.4002 8.35378 14.3537L11.3538 11.3537C11.4238 11.2838 11.4715 11.1947 11.4908 11.0976C11.5101 11.0006 11.5002 10.9 11.4623 10.8086C11.4245 10.7172 11.3603 10.6391 11.278 10.5841C11.1957 10.5292 11.099 10.4999 11 10.5Z"
        fill="#9FA0A1" />
</svg>